<svg width="56" height="56" viewBox="0 0 56 56" fill="none" xmlns="http://www.w3.org/2000/svg">
<g clip-path="url(#clip0_1_138)">
<g filter="url(#filter0_d_1_138)">
<rect width="56" height="56" rx="28" fill="black" fill-opacity="0.01"/>
</g>
<rect width="56" height="56" rx="28" fill="white"/>
</g>
<path d="M28.7945 34.6786L35.6289 27.8442C35.9594 27.5173 35.9594 26.9829 35.6289 26.6524L28.7945 19.8216C28.4676 19.4911 27.9332 19.4911 27.6027 19.8216L26.8222 20.6021C26.4848 20.936 26.4918 21.481 26.8363 21.8079L31.0726 25.8438H20.9687C20.5012 25.8438 20.125 26.22 20.125 26.6876V27.8126C20.125 28.2802 20.5012 28.6563 20.9687 28.6563H31.0726L26.8363 32.6923C26.4953 33.0192 26.4883 33.5641 26.8222 33.8981L27.6027 34.6786C27.9297 35.0091 28.464 35.0091 28.7945 34.6786Z" fill="#183B56"/>
<defs>
<filter id="filter0_d_1_138" x="-16" y="-4" width="88" height="88" filterUnits="userSpaceOnUse" color-interpolation-filters="sRGB">
<feFlood flood-opacity="0" result="BackgroundImageFix"/>
<feColorMatrix in="SourceAlpha" type="matrix" values="0 0 0 0 0 0 0 0 0 0 0 0 0 0 0 0 0 0 127 0" result="hardAlpha"/>
<feOffset dy="12"/>
<feGaussianBlur stdDeviation="8"/>
<feColorMatrix type="matrix" values="0 0 0 0 0 0 0 0 0 0 0 0 0 0 0 0 0 0 0.08 0"/>
<feBlend mode="normal" in2="BackgroundImageFix" result="effect1_dropShadow_1_138"/>
<feBlend mode="normal" in="SourceGraphic" in2="effect1_dropShadow_1_138" result="shape"/>
</filter>
<clipPath id="clip0_1_138">
<rect width="56" height="56" fill="white"/>
</clipPath>
</defs>
</svg>
